<svg xmlns="http://www.w3.org/2000/svg" viewBox="0 0 1024 1024" role="img" aria-label="UDF logo"><rect width="1024" height="1024" fill="white"/><circle cx="512" cy="385" r="302" fill="none" stroke="black" stroke-width="18"/><circle cx="512" cy="385" r="244" fill="none" stroke="black" stroke-width="10"/><text x="512" y="122" text-anchor="middle" font-family="Arial Black, Arial, sans-serif" font-size="48" font-weight="900">Diponegoro University Debating Forum</text><circle cx="423" cy="360" r="126" fill="black"/><rect x="340" y="388" width="172" height="218" rx="42" fill="black"/><path d="M500 390 620 456 502 486Z" fill="white"/><path d="M498 472 558 530 486 526Z" fill="black"/><path d="M278 606a142 150 0 0 1 284 0Z" fill="black"/><rect x="407" y="542" width="113" height="158" fill="black"/><path d="M584 394 672 330 692 360 612 430Z" fill="black"/><path d="M690 363 746 326M702 424h83M690 475l60 45" stroke="black" stroke-width="17" stroke-linecap="round"/><rect x="148" y="610" width="728" height="298" rx="52" fill="white" stroke="black" stroke-width="24"/><rect x="192" y="662" width="640" height="196" rx="32" fill="black"/><text x="512" y="824" text-anchor="middle" font-family="Arial Black, Arial, sans-serif" font-size="188" font-weight="900" fill="white">UDF</text></svg>